<?xml version="1.0" encoding="UTF-8"?>
<svg id="Layer_2" xmlns="http://www.w3.org/2000/svg" viewBox="0 0 15.46 22.8">
  <defs>
    <style>
      .cls-1 {
        fill: none;
        stroke: #000;
        stroke-linejoin: round;
      }
    </style>
  </defs>
  <g id="Layer_1-2" data-name="Layer_1">
    <g>
      <path class="cls-1" d="M7.49.5c-1.95.06-3.75.93-5.06,2.43C.99,4.58.31,6.8.55,9.01c.63,5.87,5.46,11.57,6.92,13.18.13.14.37.14.5,0,1.64-1.8,6.99-8.18,6.99-14.45,0-1.98-.78-3.82-2.2-5.2-1.42-1.38-3.29-2.1-5.27-2.04h0Z"/>
      <path class="cls-1" d="M7.73,4.55c-1.17,0-2.13.96-2.13,2.13s.96,2.13,2.13,2.13,2.13-.96,2.13-2.13-.96-2.13-2.13-2.13Z"/>
    </g>
  </g>
</svg>